<?xml version="1.0" encoding="UTF-8" standalone="no"?>
<svg
   t="1667826586202"
   class="icon"
   viewBox="0 0 1024 1024"
   version="1.1"
   p-id="18278"
   width="128"
   height="128"
   id="svg8"
   sodipodi:docname="mg.svg"
   inkscape:version="1.1.1 (3bf5ae0d25, 2021-09-20)"
   xmlns:inkscape="http://www.inkscape.org/namespaces/inkscape"
   xmlns:sodipodi="http://sodipodi.sourceforge.net/DTD/sodipodi-0.dtd"
   xmlns="http://www.w3.org/2000/svg"
   xmlns:svg="http://www.w3.org/2000/svg">
  <defs
     id="defs12" />
  <sodipodi:namedview
     id="namedview10"
     pagecolor="#ffffff"
     bordercolor="#666666"
     borderopacity="1.0"
     inkscape:pageshadow="2"
     inkscape:pageopacity="0.0"
     inkscape:pagecheckerboard="0"
     showgrid="false"
     inkscape:zoom="3.234375"
     inkscape:cx="108.83092"
     inkscape:cy="84.869565"
     inkscape:window-width="1920"
     inkscape:window-height="991"
     inkscape:window-x="-9"
     inkscape:window-y="-9"
     inkscape:window-maximized="1"
     inkscape:current-layer="svg8" />
  <path
     d="M 954.82927,255.9083 C 1095.5146,499.5825 1012.0308,811.14831 768.35662,951.83368 524.69122,1092.514 213.11661,1009.0352 72.431237,765.36104 -68.251593,521.69123 15.238488,210.11594 258.90388,69.435655 502.5781,-71.24972 814.14644,12.238486 954.82927,255.9083"
     fill="#525893"
     p-id="18279"
     data-spm-anchor-id="a313x.7781069.0.i11"
     class=""
     id="path2" />
  <path
     d="m 1022.905,525.69701 a 510.84354,510.84354 0 0 1 -28.65598,153.89273 c -0.9901,2.85999 -2.00057,5.68468 -3.06859,8.50141 a 506.23809,506.23809 0 0 1 -48.64996,97.57985 315.55502,315.55502 0 0 1 -9.7934,14.72529 c -41.52898,60.2727 -96.81524,112.42859 -164.38046,151.43739 -69.01676,39.84684 -143.49298,61.70942 -218.0102,66.99462 a 253.31009,253.31009 0 0 1 -11.59985,0.7146 505.68788,505.68788 0 0 1 -108.90197,-6.4231 404.13867,404.13867 0 0 1 -11.9789,-2.1021 A 510.61429,510.61429 0 0 1 272.0391,959.20376 L 454.95139,853.5993 319.32488,618.6873 l 201.76269,54.06215 29.95517,8.0302 73.25057,19.62369 19.59094,-73.22576 8.06295,-29.97997 51.80291,-193.42855 132.58507,229.64409 z"
     fill="#87c2a5"
     p-id="18280"
     data-spm-anchor-id="a313x.7781069.0.i12"
     class=""
     id="path4" />
  <path
     d="m 954.82927,255.9083 c 29.07956,50.36727 48.56583,103.62019 59.02173,157.65711 L 883.96201,488.55685 669.80081,117.61878 628.19572,272.90502 548.73891,569.53931 92.376338,447.25359 308.16014,821.0021 179.45797,895.30833 C 137.89305,859.23219 101.51335,815.73273 72.433782,765.36545 30.276567,692.34701 8.2720424,613.22311 4.6786864,534.38184 A 506.233,506.233 0 0 1 11.347199,425.53817 511.21035,511.21035 0 0 1 32.401691,343.38466 508.84139,508.84139 0 0 1 91.877838,224.74766 C 133.71992,162.84702 189.88712,109.2825 258.90388,69.435655 326.46469,30.429405 399.27868,8.6324384 472.24273,2.7967102 A 508.85158,508.85158 0 0 1 607.6228,9.9334764 506.81887,506.81887 0 0 1 692.31229,33.576966 505.92223,505.92223 0 0 1 789.83316,82.461001 C 855.82243,124.92501 912.90641,183.29576 954.82927,255.9083"
     fill="#fc6255"
     p-id="18281"
     data-spm-anchor-id="a313x.7781069.0.i10"
     class=""
     id="path6" />
</svg>
